#define im_width 32
#define im_height 32
static char im_bits[] = {
0x03,0x00,0x00,0x00,0x0f,0x00,0xf8,0x7f,0x3f,0x00,0xf8,0x7f,0x7f,0x00,0xf8,
0x7f,0xff,0x00,0xf8,0x7f,0xfe,0x01,0xf8,0x7f,0xfe,0x07,0xf8,0x7f,0xfe,0x0f,
0xf8,0x7f,0xfe,0x1f,0xfc,0x7f,0xfc,0x7f,0xfc,0x7f,0xfc,0xff,0xfd,0x7f,0xfc,
0xff,0xff,0x7f,0xfc,0xdf,0xff,0x7f,0xf8,0xff,0x07,0x00,0xf8,0xff,0x03,0x00,
0xf8,0xff,0xff,0xff,0xf8,0xff,0xfe,0xff,0xf0,0xff,0xff,0xff,0xf0,0xff,0x01,
0xe0,0xf0,0xff,0x03,0xe0,0xe0,0xff,0x07,0xe0,0xe0,0xfb,0x07,0xe0,0x00,0xf8,
0x0f,0xe0,0x00,0xf0,0x07,0xe0,0x00,0xe0,0x03,0xe0,0x00,0xe0,0x01,0xe0,0x00,
0xc0,0x01,0xe0,0x00,0xc0,0x01,0xe0,0x00,0xc0,0x01,0xe0,0x00,0xc0,0xff,0xff,
0x00,0xc0,0xbf,0xff,0x00,0xc0,0xff,0xff
};
