#define im_width 32
#define im_height 32
#define hand_x_hot 0
#define hand_y_hot 0
static char im_bits[] = {
0x03,0x00,0x00,0x00,0x0d,0x00,0xf8,0x7f,0x31,0x00,0x08,0x40,0x49,0x00,0x08,
0x40,0xa3,0x00,0x08,0x40,0x22,0x01,0x08,0x40,0xc2,0x06,0xe8,0x5f,0x42,0x0d,
0xe8,0x5f,0x86,0x16,0x0c,0x40,0x84,0x6a,0x0c,0x40,0x04,0x9d,0x0d,0x40,0x04,
0xf4,0x0e,0x40,0x0c,0x6a,0xff,0x7f,0x08,0xd4,0x05,0x00,0x08,0xd8,0x02,0x00,
0x08,0x60,0xff,0xff,0x18,0xb0,0x62,0x8c,0x10,0x90,0xfe,0xbf,0x10,0x40,0x01,
0xa0,0x30,0x80,0x02,0xe0,0x20,0x0e,0x05,0xe0,0xe0,0x0b,0x05,0xa0,0x00,0x18,
0x0a,0xa0,0x00,0x30,0x04,0xa0,0x00,0x20,0x02,0xe0,0x00,0x60,0x01,0xe0,0x00,
0xc0,0x01,0xa0,0x00,0xc0,0x01,0xa0,0x00,0x40,0x01,0xa0,0x00,0x40,0xff,0xff,
0x00,0x40,0x23,0x8c,0x00,0xc0,0xff,0xff
};
