#define im_width 32
#define im_height 32
#define hand_x_hot 0
#define hand_y_hot 0
static char im_bits[] = {
0x00,0x00,0x00,0x00,0x00,0x00,0x00,0x00,0x00,0x00,0x00,0x00,0x00,0x00,0x00,
0x00,0x00,0x00,0x00,0x00,0x00,0x00,0x00,0x00,0x00,0x00,0x00,0x00,0x00,0x00,
0x40,0x02,0x00,0x00,0xb4,0x02,0x00,0x00,0x15,0x02,0x00,0x40,0x57,0x03,0x00,
0x80,0x0a,0x01,0x00,0x00,0x44,0x01,0x00,0x00,0x12,0x01,0x00,0x02,0x41,0x01,
0x00,0x84,0x8a,0x01,0x00,0x42,0x9c,0x00,0x00,0x2d,0xb6,0x00,0x00,0x8a,0xe3,
0x00,0x00,0x55,0x01,0x00,0x00,0x06,0x07,0x00,0x00,0x91,0x04,0xff,0x80,0x05,
0x06,0x81,0x00,0xc0,0x03,0x9f,0x80,0x7c,0x00,0xcc,0x80,0x07,0x00,0x64,0x00,
0x00,0x00,0x26,0x00,0x00,0x00,0x33,0x00,0x00,0x00,0xf9,0x00,0x00,0x00,0x81,
0x00,0x00,0x00,0xff,0x00,0x00,0x00,0x00
};
