#define im_width 32
#define im_height 32
static char im_bits[] = {
0x00,0x00,0x00,0x00,0x00,0x00,0x00,0x00,0x00,0x00,0x00,0x00,0x00,0x00,0x00,
0x00,0x00,0x00,0x00,0x00,0x00,0x00,0x00,0x00,0x00,0x00,0xc0,0x01,0x00,0x00,
0xfc,0x03,0x00,0x00,0xff,0x03,0x00,0xc0,0xff,0x03,0x00,0xc0,0xff,0x03,0x00,
0x80,0xff,0x01,0x00,0x00,0xfe,0x01,0x00,0x07,0xff,0x01,0x00,0x8f,0xff,0x01,
0x00,0xdf,0xff,0x01,0x80,0xef,0xff,0x00,0x80,0xff,0xf7,0x00,0x80,0xff,0xe3,
0x00,0x80,0xff,0x01,0x00,0xc0,0xff,0x07,0x00,0xc0,0xff,0x07,0xff,0xc0,0xff,
0x07,0xff,0xc0,0xff,0x03,0xff,0xc0,0x7f,0x00,0xfc,0x80,0x07,0x00,0x7c,0x00,
0x00,0x00,0x3e,0x00,0x00,0x00,0x3f,0x00,0x00,0x00,0xff,0x00,0x00,0x00,0xff,
0x00,0x00,0x00,0xff,0x00,0x00,0x00,0x00
};
